<svg id="Layer_1" data-name="Layer 1" xmlns="http://www.w3.org/2000/svg" viewBox="0 0 642.16 334.15" 
><defs><style>.cls-1{font-size:117.03px;letter-spacing:0.01em;}.cls-1,.cls-2,.cls-4{fill:#1c75bc;}.cls-1,.cls-4{font-family:Impact;}.cls-3{fill:none;stroke:#2b3990;stroke-miterlimit:10;}.cls-4{font-size:117px;letter-spacing:0.01em;}</style></defs><text class="cls-1" transform="translate(0 199.3)">Bigger </text><path class="cls-2" d="M796.6,554.64h1.76V561h3.09v1.49H796.6Z" transform="translate(-172.22 -293.85)"/><path class="cls-2" d="M802.81,554.64h1.77V561h3.08v1.49h-4.85Z" transform="translate(-172.22 -293.85)"/><path class="cls-2" d="M808.23,558.59c0-2.59,1.71-4.1,3.69-4.1a3.3,3.3,0,0,1,2.35,1l-.94,1.13A2,2,0,0,0,812,556c-1.08,0-1.92.94-1.92,2.51s.75,2.54,1.89,2.54a2.06,2.06,0,0,0,1.53-.73l.93,1.11a3.21,3.21,0,0,1-2.53,1.15C809.88,562.6,808.23,561.22,808.23,558.59Z" transform="translate(-172.22 -293.85)"/><line class="cls-3" x1="96.85" y1="91.2" x2="230.32" y2="0.41"/><line class="cls-3" x1="362.64" y1="91.2" x2="229.16" y2="0.41"/><line class="cls-3" x1="292.45" y1="43.46" x2="355.74" y2="0.41"/><line class="cls-3" x1="488.05" y1="91.2" x2="354.57" y2="0.41"/><rect class="cls-2" x="223.58" y="29.97" width="13.01" height="14.44"/><rect class="cls-2" x="207.56" y="47.07" width="13.01" height="14.44"/><rect class="cls-2" x="223.58" y="46.69" width="13.01" height="14.44"/><rect class="cls-2" x="207.56" y="29.97" width="13.01" height="14.44"/><rect class="cls-2" x="354.93" y="28.71" width="9.79" height="10.87"/><rect class="cls-2" x="342.88" y="41.57" width="9.79" height="10.87"/><rect class="cls-2" x="355.32" y="41.57" width="9.79" height="10.87"/><rect class="cls-2" x="342.88" y="28.71" width="9.79" height="10.87"/><text x="-172.22" y="-293.85"/><text class="cls-4" transform="translate(325.33 253.67)">Space</text></svg>